<?xml version="1.0" encoding="utf-8"?>
<!-- Generator: Adobe Illustrator 24.0.1, SVG Export Plug-In . SVG Version: 6.00 Build 0)  -->
<svg version="1.1" id="Capa_1" xmlns="http://www.w3.org/2000/svg" xmlns:xlink="http://www.w3.org/1999/xlink" x="0px" y="0px"
	 viewBox="0 0 650 650" style="enable-background:new 0 0 650 650;" xml:space="preserve">
<style type="text/css">
	.st0{fill:#FF3500;}
	.st1{fill:#0E100F;}
</style>
<path class="st0" d="M325,650L325,650C145.5,650,0,504.5,0,325v0C0,145.5,145.5,0,325,0h0c179.5,0,325,145.5,325,325v0
	C650,504.5,504.5,650,325,650z"/>
<g>
	<path class="st1" d="M216.5,318.6C216.5,318.6,216.5,318.7,216.5,318.6l-6.8,30.1c-0.4,1.7-2,2.9-4,2.9h-8.3c-0.6,0-1.2,0.4-1.3,1
		c-7.6,26.1-18,44.1-31.6,54.9c-11.6,9.2-25.9,13.5-45,13.5c-17.2,0-28.7-5.6-38.6-16.6c-13-14.6-18.3-38.4-15.1-67.1
		c5.9-53.9,33.5-108.3,86.8-108.3c16.2-0.1,28.9,4.9,37.8,15c9.4,10.7,14.1,26.7,14.1,47.8c0,1.9-1.6,3.4-3.5,3.4h-39
		c-1.4,0-2.6-1.3-2.6-2.6c-0.3-14.5-4.6-21.6-13.1-21.6c-15,0-23.8,20.5-28.5,31.9c-6.5,15.9-9.9,33.2-9.2,50.3
		c0.3,8,1.6,19.3,9.1,23.9c6.7,4.1,16.2,1.4,21.9-3.2c5.8-4.6,10.4-12.5,12.3-19.7c0.3-1,0.3-1.8,0-2.1c-0.3-0.4-1-0.4-1.6-0.4h-10
		c-1.1,0-2.1-0.5-2.8-1.3c-0.5-0.7-0.7-1.5-0.6-2.3L144,318c0.3-1.5,1.7-2.7,3.4-2.9V315h65.8c0.2,0,0.3,0,0.5,0
		C215.3,315.3,216.5,316.9,216.5,318.6L216.5,318.6z"/>
	<path class="st1" d="M329.7,284.1c0,1.9-1.6,3.4-3.5,3.4h-35.9c-2.4,0-4.3-1.9-4.3-4.3c0-10.6-3.6-15.8-11.1-15.8
		c-7.4,0-12.2,4.6-12.4,12.7c-0.2,9,4.9,17.1,19.2,31.1c18.8,17.8,26.4,33.7,26,54.6c-0.6,33.8-23.3,55.6-57.9,55.6
		c-17.7,0-31.2-4.8-40.1-14.2c-9.1-9.6-13.3-23.6-12.4-41.7c0-1.9,1.6-3.4,3.5-3.4h37.2c1,0,2,0.5,2.7,1.3c0.6,0.7,0.8,1.6,0.7,2.5
		c-0.4,6.5,0.7,11.4,3.3,14.1c1.6,1.8,3.9,2.6,6.7,2.6c6.9,0,10.9-4.9,11-13.4c0.1-7.4-2.2-13.9-14.8-26.9
		c-16.3-16.1-30.9-32.7-30.4-58.8c0.3-15.1,6.2-29,16.8-39c11.1-10.6,26.4-16.1,44.1-16.1c17.7,0.1,31.1,5.2,39.9,15.2
		C326.2,253.1,330.2,266.7,329.7,284.1L329.7,284.1z"/>
	<path class="st1" d="M441.2,415.2l0.2-179.7c0-1.9-1.5-3.4-3.4-3.4h-55.6c-1.9,0-2.7,1.6-3.2,2.7l-80.6,179.4v0c0,0,0,0,0,0
		c-0.9,2.2,0.8,4.6,3.2,4.6h38.9c2.1,0,3.5-0.6,4.2-2l7.7-18.8c0.9-2.5,1.1-2.7,3.8-2.7h37.2c2.6,0,2.6,0.1,2.6,2.6l-0.8,17.4
		c0,1.9,1.5,3.4,3.4,3.4h39.3c1,0,1.9-0.4,2.6-1.2C441.1,416.9,441.3,416,441.2,415.2z M372.3,355.1c-0.4,0-0.6,0-0.9,0
		c-0.6-0.1-1-0.6-0.8-1.2c0.1-0.3,0.2-0.6,0.3-1l27.9-69.7c0.2-0.7,0.5-1.4,0.9-2c0.5-0.9,1-1,1.2-0.3c0.1,0.6-3.2,71.5-3.2,71.5
		c-0.3,2.7-0.4,2.8-3,3L372.3,355.1L372.3,355.1L372.3,355.1z"/>
	<path class="st1" d="M520.4,232h-29.5c-1.6,0-3.3,0.8-3.7,2.7c0,0-41.1,180.3-41.1,180.4c-0.2,0.8,0,1.7,0.6,2.3
		c0.6,0.8,1.7,1.3,2.8,1.3h36.9c2,0,3.3-1,3.7-2.7c0,0,4.5-20.4,4.5-20.4c0.3-1.6-0.2-2.8-1.6-3.6c-0.7-0.3-1.3-0.7-2-1l-6.4-3.4
		l-6.4-3.4c-0.8-0.4-1.6-0.9-2.5-1.3c-0.4-0.2-0.7-0.6-0.7-1.1c0-0.7,0.6-1.2,1.3-1.2l20.2,0.1c6.1,0,12.1-0.4,18.1-1.5
		c41.9-7.8,69.7-41.7,70.5-87.9C585.8,251.9,564,232,520.4,232L520.4,232z M510.4,339.3h-0.8c-1.8,0-2.1-0.2-2.1-0.3
		c0,0,11.7-51.9,11.7-52c0.3-1.5,0.3-2.4-0.6-2.9c-1.2-0.7-18.2-9.8-18.2-9.8c-0.4-0.2-0.7-0.6-0.6-1.1c0-0.7,0.6-1.2,1.3-1.2h27
		c8.4,0.3,13.1,7.9,12.9,20.8C540.3,315.4,529.8,338.5,510.4,339.3z"/>
	<path class="st1" d="M550.5,418.7c6.1,0,10.8-4.7,10.8-11c0-6.3-4.8-11-10.8-11c-6.1,0-10.9,4.7-10.9,11
		C539.6,414,544.4,418.7,550.5,418.7z M542.2,407.7c0-5.3,3.2-8.8,8.3-8.8c5.1,0,8.2,3.5,8.2,8.8c0,5.4-3.1,8.9-8.2,8.9
		C545.3,416.6,542.2,413.1,542.2,407.7z M545.7,413.6h3.4v-4.2h1c2.6,0,1.5,3.7,2.1,4.2h3.6v-0.2c-0.7-0.2,0.4-4.9-2.6-5.3V408
		c1.5-0.3,2.4-1.4,2.4-2.9c0-2.3-1.6-3.5-4.3-3.5h-5.7L545.7,413.6L545.7,413.6z M549.2,406.8V404h1.2c1.2,0,1.9,0.4,1.9,1.4
		c0,0.9-0.7,1.4-1.9,1.4L549.2,406.8L549.2,406.8z"/>
</g>
</svg>
