<?xml version="1.0" encoding="utf-8"?>
<!-- Generator: Adobe Illustrator 24.0.1, SVG Export Plug-In . SVG Version: 6.00 Build 0)  -->
<svg version="1.1" id="Capa_1" xmlns="http://www.w3.org/2000/svg" xmlns:xlink="http://www.w3.org/1999/xlink" x="0px" y="0px"
	 viewBox="0 0 650.1 650" style="enable-background:new 0 0 650.1 650;" xml:space="preserve">
<style type="text/css">
	.st0{fill:#FF3500;}
</style>
<path class="st0" d="M453.9,650H196.1C87.8,650,0,562.2,0,453.9V196.1C0,87.8,87.8,0,196.1,0H454c108.3,0,196.1,87.8,196.1,196.1
	V454C650,562.2,562.2,650,453.9,650z"/>
<g>
	<path d="M168.2,239.3h112v8.9H178.4v67h95.7v8.9h-95.7v73.6h103v8.9H168.2V239.3z M290.2,239.3h11.9l52.7,73.6l53.9-73.6l73.3-93.5
		L361.7,320.6l62.1,86h-12.4l-56.5-78.3l-56.7,78.3h-12.1l62.6-86L290.2,239.3z M428.2,248.2v-8.9h127.7v8.9h-58.8v158.4h-10.3
		V248.2H428.2z M28,239.3h12.8l177,264.9l-73.2-97.6l-106-154.7l-0.5,154.7H27.8V239.3H28z M554.8,395c-2.1,0-3.7-1.6-3.7-3.7
		s1.6-3.7,3.7-3.7c2.1,0,3.7,1.6,3.7,3.7S556.9,395,554.8,395z M564.9,385.2h5.5c0.1,3,2.2,5,5.4,5c3.6,0,5.6-2.2,5.6-6.2v-25.5h5.6
		V384c0,7.3-4.2,11.4-11.1,11.4C569.4,395.5,564.9,391.4,564.9,385.2z M594.4,384.9h5.5c0.5,3.4,3.8,5.6,8.6,5.6
		c4.5,0,7.8-2.3,7.8-5.5c0-2.8-2.1-4.4-6.9-5.5l-4.6-1.1c-6.5-1.5-9.5-4.7-9.5-10c0-6.4,5.2-10.7,13.1-10.7c7.3,0,12.7,4.3,13,10.4
		H616c-0.5-3.3-3.4-5.4-7.6-5.4c-4.4,0-7.4,2.1-7.4,5.4c0,2.6,1.9,4.1,6.6,5.2l4,1C619,376,622,379,622,384.5
		c0,6.9-5.3,11.2-13.9,11.2C600.1,395.5,594.8,391.3,594.4,384.9z"/>
</g>
</svg>
