<?xml version="1.0" encoding="utf-8"?>
<!-- Generator: Adobe Illustrator 24.0.1, SVG Export Plug-In . SVG Version: 6.00 Build 0)  -->
<svg version="1.1" id="Capa_1" xmlns="http://www.w3.org/2000/svg" xmlns:xlink="http://www.w3.org/1999/xlink" x="0px" y="0px"
	 viewBox="0 0 650.1 650" style="enable-background:new 0 0 650.1 650;" xml:space="preserve">
<style type="text/css">
	.st0{fill:#FF3500;}
</style>
<path class="st0" d="M453.9,650H196.1C87.8,650,0,562.2,0,453.9V196.1C0,87.8,87.8,0,196.1,0H454c108.3,0,196.1,87.8,196.1,196.1
	V454C650,562.2,562.2,650,453.9,650z"/>
<path d="M520.6,430.4c-59,78.7-185.1,52.1-266,55.9c0,0-14.3,0.8-28.7,3.2c0,0,5.5-2.3,12.4-4.7c56.8-19.6,83.6-23.6,118.1-41.3
	c64.8-33.2,129.3-105.5,142.5-180.7c-24.7,72.3-99.7,134.5-168.1,159.7c-46.8,17.3-131.3,34.1-131.4,34.1c-1.1-0.6-2.3-1.2-3.4-1.8
	c-57.5-28-59.2-152.6,45.3-192.7c45.8-17.6,89.6-7.9,139.1-19.7c52.8-12.6,114-52.1,138.8-103.9
	C547.2,221.1,580.7,350.4,520.6,430.4z M521.6,112.8c-6.7,16-15.2,31.2-25.5,45.2c-45-46.4-106.8-72.5-171.4-72.5
	C192.7,85.5,85.2,192.9,85.2,325c0,66.6,27.8,130.2,76.6,175.4l5.3,4.6c-8-8-8-21,0-29c8-8,21-8,29,0c8,8,8,21,0,29
	c-8,8-20.9,8-28.9,0l3.6,3.2c43.1,36.4,97.6,56.4,154,56.3c126.2,0,229.9-98.2,238.8-222.2C570.1,281.6,552.1,204.5,521.6,112.8"/>
</svg>
