<?xml version="1.0" encoding="utf-8"?>
<!-- Generator: Adobe Illustrator 24.0.1, SVG Export Plug-In . SVG Version: 6.00 Build 0)  -->
<svg version="1.1" id="Capa_1" xmlns="http://www.w3.org/2000/svg" xmlns:xlink="http://www.w3.org/1999/xlink" x="0px" y="0px"
	 viewBox="0 0 649.9 650" style="enable-background:new 0 0 649.9 650;" xml:space="preserve">
<style type="text/css">
	.st0{fill:#FF3500;}
</style>
<path class="st0" d="M606.6,650H43.4C19.4,650,0,630.6,0,606.6V43.4C0,19.4,19.4,0,43.4,0h563.1c24,0,43.4,19.4,43.4,43.4v563.1
	C650,630.5,630.6,650,606.6,650z"/>
<g>
	<path d="M326.1,247.8h-34.9h-34.9v99v99h-24.6h-24.6v-98.9v-99h-34.9h-34.9l0.2-21.9l0.3-21.8l93.5-0.3c51.4-0.1,93.8,0.1,94.1,0.4
		s0.6,10.2,0.6,22.1L326.1,247.8L326.1,247.8z"/>
	<path d="M508.1,405c-8.5,22.3-29.6,37.4-59.2,42.4c-9.2,1.6-30.9,1.3-40.8-0.4c-21.5-3.8-41.9-14.5-54.5-28.4
		c-5-5.4-14.5-19.6-13.9-20.7c0.3-0.3,2.5-1.7,5-3.1c2.4-1.3,11.4-6.6,19.9-11.4l15.4-8.9l3.2,4.8c4.5,6.9,14.4,16.3,20.3,19.5
		c17.1,9,40.5,7.8,52.1-2.6c5-4.5,7-9.2,7-16.1c0-6.2-0.7-8.9-4-13.6c-4.1-6-12.6-11-36.8-21.4c-27.6-11.9-39.5-19.3-50.4-31
		c-6.3-6.8-12.2-17.7-14.7-26.8c-2-7.6-2.5-26.5-0.9-34.1c5.7-26.7,25.8-45.3,54.9-50.8c9.4-1.8,31.4-1.1,40.6,1.2
		c13.6,3.4,24,9.4,33.5,19.3c5,5.3,12.2,14.9,12.8,17.2c0.2,0.7-23.1,16.3-37.2,25.1c-0.5,0.3-2.5-1.9-4.8-5.3
		c-6.9-10-14.1-14.4-25.2-15.1c-16.3-1.1-26.7,7.4-26.6,21.6c0,4.1,0.6,6.6,2.3,10c3.5,7.4,10.2,11.8,31,20.8
		c38.3,16.5,54.7,27.4,64.9,42.8C513.3,357.1,515.9,384.6,508.1,405z"/>
</g>
</svg>
