<?xml version="1.0" encoding="utf-8"?>
<!-- Generator: Adobe Illustrator 24.0.1, SVG Export Plug-In . SVG Version: 6.00 Build 0)  -->
<svg version="1.1" id="Capa_1" xmlns="http://www.w3.org/2000/svg" xmlns:xlink="http://www.w3.org/1999/xlink" x="0px" y="0px"
	 viewBox="0 0 800 800" style="enable-background:new 0 0 800 800;" xml:space="preserve">
<path d="M0,0v800h800V0H0z M435.4,624c0,77.9-45.6,113.3-112.2,113.3c-60.1,0-95-31.1-112.8-68.7l0,0l61.2-37.1
	c11.8,20.9,22.6,38.7,48.3,38.7c24.7,0,40.3-9.7,40.3-47.3V367.3h75.2V624z M613.1,737.3c-69.8,0-114.9-33.3-136.9-76.8l0,0
	l61.2-35.4c16.1,26.3,37.1,45.6,74.1,45.6c31.2,0,51-15.6,51-37.1c0-25.8-20.4-34.9-54.8-49.9l-18.8-8.1
	c-54.2-23.1-90.2-52.1-90.2-113.3c0-56.4,43-99.4,110.1-99.4c47.8,0,82.2,16.7,106.9,60.1l-58.5,37.6
	c-12.9-23.1-26.8-32.2-48.3-32.2c-22,0-36,14-36,32.2c0,22.6,14,31.7,46.2,45.6l18.8,8.1c63.9,27.4,99.9,55.3,99.9,118.1
	C737.7,700.2,684.5,737.3,613.1,737.3z"/>
</svg>
