<?xml version="1.0" encoding="utf-8"?>
<!-- Generator: Adobe Illustrator 24.0.1, SVG Export Plug-In . SVG Version: 6.00 Build 0)  -->
<svg version="1.1" id="Capa_1" xmlns="http://www.w3.org/2000/svg" xmlns:xlink="http://www.w3.org/1999/xlink" x="0px" y="0px"
	 viewBox="0 0 1142.2 232.5" style="enable-background:new 0 0 1142.2 232.5;" xml:space="preserve">
<style type="text/css">
	.st0{fill:#020203;}
	.st1{fill:url(#SVGID_1_);}
</style>
<path class="st0" d="M304.5,135.5c1.2,10.9,11,29.5,39.7,29.5c25,0,37-15.9,37-31.4c0-14-9.5-25.4-28.3-29.3l-13.6-2.9
	c-5.2-1-8.7-3.9-8.7-8.5c0-5.4,5.4-9.5,12.2-9.5c10.8,0,14.9,7.2,15.7,12.8l21.5-4.8c-1.2-10.3-10.3-27.5-37.4-27.5
	c-20.5,0-35.6,14.2-35.6,31.2c0,13.4,8.3,24.4,26.7,28.5l12.6,2.9c7.4,1.6,10.3,5,10.3,9.3c0,5-4.1,9.5-12.6,9.5
	c-11.2,0-16.9-7-17.4-14.5L304.5,135.5z"/>
<path class="st0" d="M463.6,162h24.6c-0.4-3.3-1-9.9-1-17.3V66.6h-25.8v55.5c0,11.1-6.6,18.8-18,18.8c-12,0-17.4-8.5-17.4-19.2V66.6
	h-25.8v60.3c0,20.8,13.2,37.6,36.2,37.6c10.1,0,21.1-3.9,26.3-12.8C462.8,155.6,463.2,160.1,463.6,162z"/>
<path class="st0" d="M540.4,198.9v-46.2c4.6,6.4,14.3,11.6,27.5,11.6c26.9,0,44.9-21.3,44.9-50.2c0-28.3-16.1-49.6-44-49.6
	c-14.3,0-25,6.4-29.2,13.8V66.6h-25v132.3H540.4z M587.5,114.3c0,17.1-10.5,27-23.6,27c-13.2,0-23.8-10.1-23.8-27
	c0-16.9,10.7-26.8,23.8-26.8C577.1,87.6,587.5,97.5,587.5,114.3z"/>
<path class="st0" d="M627.5,136c0,14.9,12.4,28.7,32.7,28.7c14.1,0,23.2-6.6,28.1-14.2c0,3.7,0.4,8.9,1,11.4h23.6
	c-0.6-3.3-1.2-10.1-1.2-15.1V100c0-19.2-11.2-36.3-41.5-36.3c-25.6,0-39.3,16.5-40.9,31.4l22.9,4.8c0.8-8.3,7-15.5,18.2-15.5
	c10.9,0,16.1,5.6,16.1,12.4c0,3.3-1.7,6-7.2,6.8l-23.4,3.5C640.1,109.5,627.5,119,627.5,136z M665.6,145.5
	c-8.3,0-12.4-5.4-12.4-11.1c0-7.4,5.2-11.1,11.8-12l21.5-3.3v4.3C686.6,140.3,676.5,145.5,665.6,145.5z"/>
<path class="st0" d="M762.7,162v-11.6c5,8.1,15.1,14,28.3,14c27.1,0,44.9-21.5,44.9-50.4c0-28.3-16.1-49.8-44-49.8
	c-14.1,0-24.6,6.2-28.9,13V21.6h-25.4V162H762.7z M810.1,114.1c0,17.5-10.5,27.2-23.6,27.2c-13,0-23.8-9.9-23.8-27.2
	c0-17.5,10.8-27,23.8-27C799.7,87.2,810.1,96.7,810.1,114.1z"/>
<path class="st0" d="M850.5,136c0,14.9,12.4,28.7,32.7,28.7c14.1,0,23.2-6.6,28.1-14.2c0,3.7,0.4,8.9,1,11.4h23.6
	c-0.6-3.3-1.2-10.1-1.2-15.1V100c0-19.2-11.2-36.3-41.5-36.3c-25.6,0-39.3,16.5-40.9,31.4l22.9,4.8c0.8-8.3,7-15.5,18.2-15.5
	c10.9,0,16.1,5.6,16.1,12.4c0,3.3-1.7,6-7.2,6.8l-23.4,3.5C863.1,109.5,850.5,119,850.5,136z M888.7,145.5
	c-8.3,0-12.4-5.4-12.4-11.1c0-7.4,5.2-11.1,11.8-12l21.5-3.3v4.3C909.6,140.3,899.5,145.5,888.7,145.5z"/>
<path class="st0" d="M952.6,135.5c1.2,10.9,11,29.5,39.7,29.5c25,0,37-15.9,37-31.4c0-14-9.5-25.4-28.3-29.3l-13.6-2.9
	c-5.2-1-8.7-3.9-8.7-8.5c0-5.4,5.4-9.5,12.2-9.5c10.9,0,14.9,7.2,15.7,12.8l21.5-4.8c-1.2-10.3-10.3-27.5-37.4-27.5
	c-20.5,0-35.6,14.2-35.6,31.2c0,13.4,8.3,24.4,26.7,28.5l12.6,2.9c7.4,1.6,10.3,5,10.3,9.3c0,5-4.1,9.5-12.6,9.5
	c-11.2,0-16.9-7-17.4-14.5L952.6,135.5z"/>
<path class="st0" d="M1068.4,103.5c0.6-8.7,7.9-18.8,21.3-18.8c14.7,0,20.9,9.3,21.3,18.8H1068.4z M1113.6,128.3
	c-3.1,8.5-9.7,14.5-21.7,14.5c-12.8,0-23.4-9.1-24-21.7h68.2c0-0.4,0.4-4.3,0.4-8c0-30.6-17.6-49.5-47.1-49.5
	c-24.4,0-46.9,19.8-46.9,50.2c0,32.2,23,51,49.2,51c23.4,0,38.5-13.8,43.4-30.3L1113.6,128.3z"/>
<linearGradient id="SVGID_1_" gradientUnits="userSpaceOnUse" x1="108.574" y1="85.3063" x2="186.4986" y2="52.6248" gradientTransform="matrix(1 0 0 -1 0 214.715)">
	<stop  offset="0" style="stop-color:#249462"/>
	<stop  offset="1" style="stop-color:#5CB888"/>
</linearGradient>
<path class="st1" d="M134.5,219.9c-5.5,7-16.8,3.2-16.9-5.8l-2-130.4h87.7c15.9,0,24.7,18.3,14.9,30.8L134.5,219.9z"/>
<path class="st0" d="M134.5,219.9c-5.5,7-16.8,3.2-16.9-5.8l-2-130.4h87.7c15.9,0,24.7,18.3,14.9,30.8L134.5,219.9z"/>
<path class="st0" d="M98.8,10c5.5-7,16.8-3.2,16.9,5.8l0.9,130.4H30c-15.9,0-24.7-18.3-14.9-30.8L98.8,10z"/>
</svg>
