<?xml version="1.0" encoding="utf-8"?>
<!-- Generator: Adobe Illustrator 24.0.1, SVG Export Plug-In . SVG Version: 6.00 Build 0)  -->
<svg version="1.1" id="Capa_1" xmlns="http://www.w3.org/2000/svg" xmlns:xlink="http://www.w3.org/1999/xlink" x="0px" y="0px"
	 viewBox="0 0 800 800" style="enable-background:new 0 0 800 800;" xml:space="preserve">
<path d="M400,0H0v400v400h400h400V400V0H400z M458.6,435.4h-52.1h-52.1v147.9v147.9h-36.8h-36.8V583.4V435.4h-52.1h-52.1l0.3-32.8
	l0.4-32.6l139.8-0.4c76.8-0.1,140.2,0.1,140.6,0.6c0.5,0.4,0.9,15.2,0.9,33V435.4z M730.6,670.4c-12.7,33.3-44.2,55.9-88.5,63.4
	c-13.7,2.4-46.2,2-61-0.6c-32.1-5.7-62.6-21.6-81.4-42.4c-7.4-8.1-21.7-29.3-20.8-30.9c0.4-0.5,3.7-2.5,7.4-4.7
	c3.6-2,17-9.8,29.7-17.1l23-13.3l4.8,7.1c6.7,10.3,21.5,24.4,30.3,29.1c25.5,13.5,60.6,11.6,77.8-3.9c7.4-6.7,10.4-13.7,10.4-24
	c0-9.3-1.1-13.3-6-20.3c-6.2-8.9-18.9-16.4-55-32c-41.3-17.8-59-28.8-75.3-46.3c-9.4-10.2-18.3-26.4-22-40c-3-11.3-3.8-39.6-1.4-51
	c8.5-39.9,38.6-67.7,82-75.9c14.1-2.7,46.9-1.7,60.7,1.8c20.3,5.1,35.8,14.1,50,28.8c7.4,7.9,18.3,22.2,19.2,25.7
	c0.3,1-34.5,24.4-55.6,37.5c-0.8,0.5-3.8-2.8-7.2-7.9c-10.3-15-21.1-21.5-37.6-22.6c-24.3-1.7-39.9,11-39.7,32.3
	c0,6.2,0.9,9.9,3.4,15c5.3,11,15.2,17.7,46.3,31.1c57.3,24.6,81.8,40.9,97,64C738.3,598.7,742.2,639.8,730.6,670.4z"/>
</svg>
